# xmcd
#
# Track frame offsets:
#	150
#	22238
#	41028
#	61020
#	71677
#	95963
#	108748
#	118148
#	132344
#	147958
#	167720
#	188210
#	204113
#	225338
#
# Disc length: 3285 seconds
#
# Revision: 0
# Processed by: cddbd v1.5.2PL0 Copyright (c) Steve Scherf et al.
# Submitted via: dBpowerAMP V4.0
#
DISCID=ce0cd30e
DTITLE=Alvin Lee - SAGUITAR
DYEAR=2007
DGENRE=Blues
TTITLE0=Anytime U Want Me
TTITLE1=Squeeze
TTITLE2=It's Time To Play
TTITLE3=Midnight Train
TTITLE4=Motel Blues
TTITLE5=Only Here For The Ride
TTITLE6=Memphis
TTITLE7=Got A Lot Of Living To Do
TTITLE8=Blues Has Got A Hold On Me
TTITLE9=It's All Good
TTITLE10=Education
TTITLE11=Rapper
TTITLE12=Smoking Rope
TTITLE13=Rocking Rendezvous
EXTD=
EXTT0=
EXTT1=
EXTT2=
EXTT3=
EXTT4=
EXTT5=
EXTT6=
EXTT7=
EXTT8=
EXTT9=
EXTT10=
EXTT11=
EXTT12=
EXTT13=
PLAYORDER=
